<?xml version="1.0" encoding="UTF-8" standalone="no"?>
<!-- Created with Inkscape (http://www.inkscape.org/) -->

<svg
   xmlns:dc="http://purl.org/dc/elements/1.1/"
   xmlns:cc="http://creativecommons.org/ns#"
   xmlns:rdf="http://www.w3.org/1999/02/22-rdf-syntax-ns#"
   xmlns:svg="http://www.w3.org/2000/svg"
   xmlns="http://www.w3.org/2000/svg"
   xmlns:sodipodi="http://sodipodi.sourceforge.net/DTD/sodipodi-0.dtd"
   xmlns:inkscape="http://www.inkscape.org/namespaces/inkscape"
   width="111.41387mm"
   height="190.93304mm"
   viewBox="0 0 111.41387 190.93305"
   version="1.1"
   id="svg8"
   inkscape:version="0.92.1 r"
   sodipodi:docname="drawing.svg">
  <defs
     id="defs2">
    <marker
       inkscape:stockid="Arrow1Mend"
       orient="auto"
       refY="0"
       refX="0"
       id="Arrow1Mend"
       style="overflow:visible"
       inkscape:isstock="true">
      <path
         id="path4554"
         d="M 0,0 5,-5 -12.5,0 5,5 Z"
         style="fill:#d40000;fill-opacity:0.82352941;fill-rule:evenodd;stroke:#d40000;stroke-width:1.00000003pt;stroke-opacity:0.82352941"
         transform="matrix(-0.4,0,0,-0.4,-4,0)"
         inkscape:connector-curvature="0" />
    </marker>
    <marker
       inkscape:stockid="Arrow1Lend"
       orient="auto"
       refY="0"
       refX="0"
       id="Arrow1Lend"
       style="overflow:visible"
       inkscape:isstock="true">
      <path
         id="path4548"
         d="M 0,0 5,-5 -12.5,0 5,5 Z"
         style="fill:#d40000;fill-opacity:0.82352941;fill-rule:evenodd;stroke:#d40000;stroke-width:1.00000003pt;stroke-opacity:0.82352941"
         transform="matrix(-0.8,0,0,-0.8,-10,0)"
         inkscape:connector-curvature="0" />
    </marker>
  </defs>
  <sodipodi:namedview
     id="base"
     pagecolor="#ffffff"
     bordercolor="#666666"
     borderopacity="1.0"
     inkscape:pageopacity="0.0"
     inkscape:pageshadow="2"
     inkscape:zoom="0.7"
     inkscape:cx="-12.600387"
     inkscape:cy="320.91861"
     inkscape:document-units="mm"
     inkscape:current-layer="layer1"
     showgrid="false"
     inkscape:window-width="956"
     inkscape:window-height="1057"
     inkscape:window-x="960"
     inkscape:window-y="0"
     inkscape:window-maximized="0"
     fit-margin-top="0"
     fit-margin-left="0"
     fit-margin-right="0"
     fit-margin-bottom="0"
     showborder="false" />
  <metadata
     id="metadata5">
    <rdf:RDF>
      <cc:Work
         rdf:about="">
        <dc:format>image/svg+xml</dc:format>
        <dc:type
           rdf:resource="http://purl.org/dc/dcmitype/StillImage" />
        <dc:title></dc:title>
      </cc:Work>
    </rdf:RDF>
  </metadata>
  <g
     inkscape:label="Layer 1"
     inkscape:groupmode="layer"
     id="layer1"
     transform="translate(-25.391366,-21.711309)">
    <path
       sodipodi:type="inkscape:offset"
       inkscape:radius="0.0018316527"
       inkscape:original="M 79.992188 28.419922 C 78.97097 28.56581 77.96044 29.130834 76.855469 29.970703 C 75.750497 30.810572 74.5765 31.949669 73.412109 33.337891 C 71.083329 36.114333 68.799884 39.885168 67.417969 44.207031 C 64.654138 52.850757 65.678086 63.813406 77.273438 72.511719 C 79.378719 74.091006 80.586689 76.279449 81.099609 78.970703 C 81.612529 81.661957 81.394612 84.845567 80.568359 88.224609 C 79.515717 92.529493 77.411841 97.106793 74.779297 101.42578 C 70.290291 97.915206 65.222649 94.977877 60.257812 93.037109 C 53.1883 90.273618 46.363531 89.350037 41.833984 91.857422 C 39.569211 93.111114 37.971311 95.304303 37.462891 98.306641 C 36.95447 101.30898 37.454691 105.10441 39.138672 109.86719 C 40.743717 114.40659 42.886394 117.52905 45.451172 119.41406 C 48.015949 121.29908 50.987004 121.88375 53.982422 121.45117 C 59.973257 120.58601 66.146429 115.88793 71.339844 109.71289 C 72.747644 108.039 74.060726 106.24104 75.292969 104.38477 C 76.486515 105.40031 77.665908 106.43068 78.720703 107.52148 C 83.946685 112.92588 87.178429 119.08321 86.515625 124.85938 C 85.131423 136.92233 84.220568 145.5715 82.816406 152.20898 C 81.412245 158.84647 79.543602 163.44109 76.214844 167.61133 C 72.482096 172.28768 61.705592 182.14942 51.951172 190.71484 C 42.196752 199.28027 33.410156 206.63281 33.410156 206.63281 L 34.669922 208.14062 C 34.669922 208.14062 43.472926 200.77501 53.248047 192.19141 C 63.023168 183.6078 73.717539 173.88972 77.75 168.83789 C 81.297007 164.39424 83.298465 159.42126 84.738281 152.61523 C 86.178098 145.8092 87.083637 137.13785 88.466797 125.08398 C 89.22855 118.44551 85.595495 111.80341 80.134766 106.15625 C 78.958033 104.93934 77.658368 103.78953 76.328125 102.66992 C 79.118071 98.14402 81.34457 93.320808 82.476562 88.691406 C 83.350812 85.116082 83.615997 81.669686 83.03125 78.601562 C 82.446503 75.53344 80.975508 72.831632 78.453125 70.939453 C 67.434311 62.673633 66.708714 52.882643 69.291016 44.806641 C 70.582166 40.768639 72.745608 37.189189 74.916016 34.601562 C 76.00122 33.307749 77.089262 32.261536 78.044922 31.535156 C 79.000581 30.808776 79.849409 30.425252 80.269531 30.365234 L 79.992188 28.419922 z M 49.955078 92.484375 C 52.848483 92.722093 56.144884 93.53963 59.541016 94.867188 C 64.380517 96.758961 69.380956 99.662844 73.761719 103.11523 C 72.538664 104.97622 71.238737 106.78127 69.835938 108.44922 C 64.826657 114.40532 58.860087 118.76279 53.701172 119.50781 C 51.121714 119.88032 48.764352 119.40961 46.615234 117.83008 C 44.466117 116.25056 42.508226 113.50057 40.992188 109.21289 C 39.377859 104.64723 38.974316 101.15083 39.400391 98.634766 C 39.826465 96.118699 41.001564 94.564582 42.787109 93.576172 C 44.572655 92.587762 47.061673 92.246657 49.955078 92.484375 z "
       style="color:#000000;font-style:normal;font-variant:normal;font-weight:normal;font-stretch:normal;font-size:medium;line-height:normal;font-family:sans-serif;font-variant-ligatures:normal;font-variant-position:normal;font-variant-caps:normal;font-variant-numeric:normal;font-variant-alternates:normal;font-feature-settings:normal;text-indent:0;text-align:start;text-decoration:none;text-decoration-line:none;text-decoration-style:solid;text-decoration-color:#000000;letter-spacing:normal;word-spacing:normal;text-transform:none;writing-mode:lr-tb;direction:ltr;text-orientation:mixed;dominant-baseline:auto;baseline-shift:baseline;text-anchor:start;white-space:normal;shape-padding:0;clip-rule:nonzero;display:inline;overflow:visible;visibility:visible;opacity:1;isolation:auto;mix-blend-mode:normal;color-interpolation:sRGB;color-interpolation-filters:linearRGB;solid-color:#000000;solid-opacity:1;vector-effect:none;fill:#000000;fill-opacity:1;fill-rule:nonzero;stroke:none;stroke-width:1.96500003;stroke-linecap:butt;stroke-linejoin:miter;stroke-miterlimit:4;stroke-dasharray:none;stroke-dashoffset:0;stroke-opacity:1;color-rendering:auto;image-rendering:auto;shape-rendering:auto;text-rendering:auto;enable-background:accumulate"
       id="path10"
       d="m 79.992188,28.419922 c -1.021218,0.145888 -2.031748,0.710912 -3.136719,1.550781 -1.104972,0.839869 -2.278969,1.978966 -3.44336,3.367188 -2.32878,2.776442 -4.612225,6.547277 -5.99414,10.86914 -2.763831,8.643726 -1.739883,19.606375 9.855469,28.304688 2.105281,1.579287 3.313251,3.76773 3.826171,6.458984 0.51292,2.691254 0.295003,5.874864 -0.53125,9.253906 -1.052642,4.304884 -3.156518,8.882184 -5.789062,13.201171 C 70.290291,97.915206 65.222649,94.977877 60.257812,93.037109 53.1883,90.273618 46.363531,89.350037 41.833984,91.857422 c -2.264773,1.253692 -3.862673,3.446881 -4.371093,6.449219 -0.508421,3.002339 -0.0082,6.797769 1.675781,11.560549 1.605045,4.5394 3.747722,7.66186 6.3125,9.54687 2.564777,1.88502 5.535832,2.46969 8.53125,2.03711 5.990835,-0.86516 12.164007,-5.56324 17.357422,-11.73828 1.4078,-1.67389 2.720882,-3.47185 3.953125,-5.32812 1.193546,1.01554 2.372939,2.04591 3.427734,3.13671 5.225982,5.4044 8.457726,11.56173 7.794922,17.3379 -1.384202,12.06295 -2.295057,20.71212 -3.699219,27.3496 -1.404161,6.63749 -3.272804,11.23211 -6.601562,15.40235 -3.732748,4.67635 -14.509252,14.53809 -24.263672,23.10351 -9.75442,8.56543 -18.541016,15.91797 -18.541016,15.91797 l 1.259766,1.50781 c 0,0 8.803004,-7.36561 18.578125,-15.94921 9.775121,-8.58361 20.469492,-18.30169 24.501953,-23.35352 3.547007,-4.44365 5.548465,-9.41663 6.988281,-16.22266 1.439817,-6.80603 2.345356,-15.47738 3.728516,-27.53125 0.761753,-6.63847 -2.871302,-13.28057 -8.332031,-18.92773 -1.176733,-1.21691 -2.476398,-2.36672 -3.806641,-3.48633 2.789946,-4.5259 5.016445,-9.349112 6.148437,-13.978514 0.87425,-3.575324 1.139435,-7.02172 0.554688,-10.089844 -0.584747,-3.068122 -2.055742,-5.76993 -4.578125,-7.662109 -11.018814,-8.26582 -11.744411,-18.05681 -9.162109,-26.132812 1.29115,-4.038002 3.454592,-7.617452 5.625,-10.205079 1.085204,-1.293813 2.173246,-2.340026 3.128906,-3.066406 0.955659,-0.72638 1.804487,-1.109904 2.224609,-1.169922 z m -30.03711,64.064453 c 2.893405,0.237718 6.189806,1.055255 9.585938,2.382813 4.839501,1.891773 9.83994,4.795656 14.220703,8.248042 -1.223055,1.86099 -2.522982,3.66604 -3.925781,5.33399 -5.009281,5.9561 -10.975851,10.31357 -16.134766,11.05859 -2.579458,0.37251 -4.93682,-0.0982 -7.085938,-1.67773 -2.149117,-1.57952 -4.107008,-4.32951 -5.623046,-8.61719 -1.614329,-4.56566 -2.017872,-8.06206 -1.591797,-10.578124 0.426074,-2.516067 1.601173,-4.070184 3.386718,-5.058594 1.785546,-0.98841 4.274564,-1.329515 7.167969,-1.091797 z" />
    <rect
       style="fill:none;fill-opacity:1;stroke:#d50000;stroke-width:0.92142493;stroke-miterlimit:4;stroke-dasharray:none;stroke-opacity:1"
       id="rect4511"
       width="57.152977"
       height="51.105358"
       x="46.829762"
       y="22.172022" />
    <rect
       style="fill:none;fill-opacity:1;stroke:#d50000;stroke-width:0.92142493;stroke-miterlimit:4;stroke-dasharray:none;stroke-opacity:1"
       id="rect4511-3"
       width="57.152981"
       height="51.105358"
       x="33.03363"
       y="80.569344" />
    <rect
       style="fill:none;fill-opacity:1;stroke:#d50000;stroke-width:1.02815759;stroke-miterlimit:4;stroke-dasharray:none;stroke-opacity:1"
       id="rect4511-3-6"
       width="64.605774"
       height="56.290291"
       x="25.905445"
       y="155.83998" />
    <text
       xml:space="preserve"
       style="font-style:normal;font-weight:normal;font-size:10.58333302px;line-height:1.25;font-family:sans-serif;text-align:center;letter-spacing:0px;word-spacing:0px;text-anchor:middle;fill:#d50000;fill-opacity:1;stroke:none;stroke-width:0.26458332"
       x="122.01544"
       y="41.86607"
       id="text5167"><tspan
         sodipodi:role="line"
         id="tspan5165"
         x="122.01544"
         y="41.86607"
         style="text-align:center;text-anchor:middle;fill:#d50000;fill-opacity:1;stroke-width:0.26458332">would</tspan><tspan
         sodipodi:role="line"
         x="122.01544"
         y="55.095238"
         style="text-align:center;text-anchor:middle;fill:#d50000;fill-opacity:1;stroke-width:0.26458332"
         id="tspan5169">have</tspan></text>
    <text
       xml:space="preserve"
       style="font-style:normal;font-weight:normal;font-size:10.58333302px;line-height:1.25;font-family:sans-serif;text-align:center;letter-spacing:0px;word-spacing:0px;text-anchor:middle;fill:#d50000;fill-opacity:1;stroke:none;stroke-width:0.26458332"
       x="111.76136"
       y="107.2327"
       id="text5167-7"><tspan
         sodipodi:role="line"
         x="111.76136"
         y="107.2327"
         style="text-align:center;text-anchor:middle;fill:#d50000;fill-opacity:1;stroke-width:0.26458332"
         id="tspan5169-3">&quot;they&quot;</tspan></text>
    <text
       xml:space="preserve"
       style="font-style:normal;font-weight:normal;font-size:10.58333302px;line-height:1.25;font-family:sans-serif;text-align:center;letter-spacing:0px;word-spacing:0px;text-anchor:middle;fill:#d50000;fill-opacity:1;stroke:none;stroke-width:0.26458332"
       x="106.60478"
       y="185.39293"
       id="text5167-7-5"><tspan
         sodipodi:role="line"
         x="106.60478"
         y="185.39293"
         style="text-align:center;text-anchor:middle;fill:#d50000;fill-opacity:1;stroke-width:0.26458332"
         id="tspan5169-3-6">past</tspan></text>
  </g>
</svg>
